<?xml version="1.0" encoding="UTF-8"?>
<!DOCTYPE svg PUBLIC "-//W3C//DTD SVG 1.1//EN" "http://www.w3.org/Graphics/SVG/1.1/DTD/svg11.dtd">
<!-- Creator: CorelDRAW X8 -->
<svg xmlns="http://www.w3.org/2000/svg" xml:space="preserve" width="154px" height="154px" version="1.1" style="shape-rendering:geometricPrecision; text-rendering:geometricPrecision; image-rendering:optimizeQuality; fill-rule:evenodd; clip-rule:evenodd"
viewBox="0 0 154 154"
 xmlns:xlink="http://www.w3.org/1999/xlink">
 <defs>
  <style type="text/css">
   <![CDATA[
    .fil0 {fill:#FEFEFE}
    .fil1 {fill:#4065B4}
   ]]>
  </style>
 </defs>
 <g id="Слой_x0020_1">
  <metadata id="CorelCorpID_0Corel-Layer"/>
  <rect class="fil0" width="154" height="154"/>
  <path class="fil1" d="M154 0l-77 0 -77 0 0 77 0 77 77 0 77 0 0 -77 0 -77zm-67 60l0 0 10 0 0 15 -10 0 0 39 -21 0 0 -39 -8 0 0 -15 8 0 0 -2c0,-3 0,-5 1,-8 0,-2 1,-4 2,-6 2,-2 4,-3 6,-4 2,-1 6,-2 10,-2 4,0 9,1 16,2l-2 12c-3,0 -5,-1 -6,-1 -2,0 -4,1 -4,1 -1,1 -2,2 -2,3 0,1 0,3 0,5z"/>
 </g>
</svg>
