<?xml version="1.0" encoding="UTF-8"?>
<!DOCTYPE svg PUBLIC "-//W3C//DTD SVG 1.1//EN" "http://www.w3.org/Graphics/SVG/1.1/DTD/svg11.dtd">
<!-- Creator: CorelDRAW X8 -->
<svg xmlns="http://www.w3.org/2000/svg" xml:space="preserve" width="154px" height="154px" version="1.1" style="shape-rendering:geometricPrecision; text-rendering:geometricPrecision; image-rendering:optimizeQuality; fill-rule:evenodd; clip-rule:evenodd"
viewBox="0 0 154 154"
 xmlns:xlink="http://www.w3.org/1999/xlink">
 <defs>
  <style type="text/css">
   <![CDATA[
    .fil0 {fill:#FEFEFE}
    .fil1 {fill:#FA8E12}
   ]]>
  </style>
 </defs>
 <g id="Слой_x0020_1">
  <metadata id="CorelCorpID_0Corel-Layer"/>
  <rect class="fil0" width="154" height="154"/>
  <path class="fil1" d="M154 0l-77 0 -77 0 0 77 0 77 77 0 77 0 0 -77 0 -77zm-82 29l0 0c15,-5 27,7 30,18 3,15 -7,27 -19,30 -30,7 -44,-39 -11,-48zm0 69l0 0c-2,-1 -6,-2 -8,-2 -24,-8 -16,-20 -9,-19 2,0 5,2 7,3 10,6 23,6 32,0 2,-1 4,-3 7,-3 5,0 13,8 -2,15 -8,5 -9,4 -15,6 1,2 13,13 16,17 6,5 1,12 -5,11 -3,0 -15,-13 -17,-15 -5,2 -13,14 -18,15 -6,1 -11,-6 -5,-12l17 -16zm3 -57l0 0c7,-2 13,3 15,9 1,7 -4,13 -9,14 -15,4 -22,-19 -6,-23z"/>
 </g>
</svg>
