<?xml version="1.0" encoding="UTF-8"?>
<!DOCTYPE svg PUBLIC "-//W3C//DTD SVG 1.1//EN" "http://www.w3.org/Graphics/SVG/1.1/DTD/svg11.dtd">
<!-- Creator: CorelDRAW X8 -->
<svg xmlns="http://www.w3.org/2000/svg" xml:space="preserve" width="1358px" height="1890px" version="1.1" style="shape-rendering:geometricPrecision; text-rendering:geometricPrecision; image-rendering:optimizeQuality; fill-rule:evenodd; clip-rule:evenodd"
viewBox="0 0 1358 1889"
 xmlns:xlink="http://www.w3.org/1999/xlink"
 xmlns:a="http://ns.adobe.com/AdobeSVGViewerExtensions/3.0/"
 enable-background="new 0 0 429.7 620.1">
 <defs>
  <style type="text/css">
   <![CDATA[
    .fil0 {fill:#FEFEFE}
    .fil1 {fill:#FEFEFE;fill-rule:nonzero}
   ]]>
  </style>
 </defs>
 <g id="Слой_x0020_1">
  <metadata id="CorelCorpID_0Corel-Layer"/>
  <g id="_2227703093840">
   <g>
    <polygon class="fil0" points="332,160 332,86 295,86 295,160 271,160 271,67 355,67 355,160 "/>
    <path class="fil0" d="M461 114c0,30 -17,48 -46,48 -28,0 -46,-18 -46,-48 0,-30 18,-49 46,-49 29,0 46,19 46,49zm-67 0c0,18 8,29 21,29 14,0 22,-11 22,-29 0,-18 -8,-29 -22,-29 -13,0 -21,11 -21,29z"/>
    <path class="fil0" d="M475 160l0 -93 44 0c18,0 29,9 29,23 0,11 -8,19 -19,21l0 0c13,1 23,10 23,23 0,16 -13,27 -33,27l-44 0 0 -1zm24 -55l12 0c9,0 14,-4 14,-11 0,-6 -5,-10 -13,-10l-13 0 0 21zm14 39c10,0 15,-5 15,-13 0,-7 -5,-11 -15,-11l-14 0 0 24 14 0z"/>
    <polygon class="fil0" points="629,160 564,160 564,67 629,67 629,86 588,86 588,105 626,105 626,122 589,122 589,141 629,141 629,160 "/>
    <path class="fil0" d="M685 67c20,0 34,13 34,33 0,20 -15,33 -35,33l-16 0 0 27 -24 0 0 -93 41 0zm-17 48l11 0c10,0 16,-5 16,-15 0,-10 -6,-15 -16,-15l-11 0 0 30 0 0z"/>
    <polygon class="fil0" points="793,160 793,123 756,123 756,160 732,160 732,67 756,67 756,104 793,104 793,67 817,67 817,160 "/>
    <polygon class="fil0" points="897,103 896,103 858,160 835,160 835,67 859,67 859,124 859,124 898,67 920,67 920,160 897,160 "/>
    <polygon class="fil0" points="958,160 958,86 933,86 933,67 1008,67 1008,86 982,86 982,160 "/>
    <polygon class="fil0" points="1085,160 1021,160 1021,67 1085,67 1085,86 1045,86 1045,105 1083,105 1083,122 1045,122 1045,141 1085,141 "/>
    <path class="fil0" d="M8 320l0 -94 43 0c19,0 30,9 30,24 0,10 -8,18 -19,20l0 0c13,1 23,10 23,23 0,16 -13,27 -33,27l-44 0 0 0zm23 -56l13 0c9,0 14,-4 14,-11 0,-6 -5,-10 -13,-10l-14 0 0 21zm15 39c10,0 15,-5 15,-13 0,-7 -5,-11 -15,-11l-15 0 0 24 15 0z"/>
    <path class="fil0" d="M152 299l-31 0 -6 21 -24 0 31 -94 29 0 32 94 -25 0 -6 -21zm-26 -17l21 0 -10 -36 -1 0 -10 36z"/>
    <polygon class="fil0" points="194,226 218,226 218,300 240,300 240,226 264,226 264,300 287,300 287,226 311,226 311,320 194,320 "/>
    <polygon class="fil0" points="391,320 327,320 327,226 391,226 391,245 351,245 351,264 389,264 389,281 351,281 351,300 391,300 "/>
    <path class="fil0" d="M441 320l0 -19c0,0 2,0 6,0 5,0 9,-1 12,-5l-31 -70 25 0 18 48 1 0 17 -48 25 0 -29 67c-8,18 -16,27 -35,27 -5,0 -9,0 -9,0z"/>
    <path class="fil0" d="M516 273c0,-31 17,-49 45,-49 23,0 40,14 42,35l-23 0c-2,-9 -9,-16 -19,-16 -13,0 -21,11 -21,29 0,19 8,30 21,30 10,0 17,-6 19,-16l23 0c-2,22 -19,36 -42,36 -28,0 -45,-19 -45,-49z"/>
    <polygon class="fil0" points="635,320 635,245 609,245 609,226 685,226 685,245 659,245 659,320 "/>
    <path class="fil0" d="M739 226c20,0 33,13 33,33 0,20 -14,33 -35,33l-15 0 0 28 -24 0 0 -94 41 0zm-17 48l10 0c10,0 16,-5 16,-15 0,-9 -6,-15 -16,-15l-11 0 0 30 1 0z"/>
    <path class="fil0" d="M875 273c0,29 -18,48 -46,48 -28,0 -46,-19 -46,-48 0,-30 18,-49 46,-49 28,1 46,19 46,49zm-68 0c0,17 9,29 22,29 13,0 22,-12 22,-29 0,-18 -9,-29 -22,-29 -13,0 -22,11 -22,29z"/>
    <path class="fil0" d="M951 262l-1 0 -38 58 -23 0 0 -94 24 0 0 57 0 0 39 -57 22 0 0 94 -23 0 0 -58zm-30 -61c0,6 4,9 11,9 6,0 10,-3 10,-9l13 0c0,12 -9,20 -23,20 -14,0 -24,-8 -24,-20l13 0z"/>
    <path class="fil0" d="M988 273c0,-31 18,-49 46,-49 23,0 40,14 42,35l-23 0c-2,-9 -10,-16 -19,-16 -13,0 -21,11 -21,29 0,19 8,30 21,30 9,0 17,-6 19,-16l23 0c-2,21 -19,35 -42,35 -28,1 -46,-18 -46,-48z"/>
    <polygon class="fil0" points="1108,320 1108,245 1082,245 1082,226 1158,226 1158,245 1132,245 1132,320 "/>
    <path class="fil0" d="M1171 320l0 -94 43 0c19,0 30,9 30,24 0,10 -8,18 -19,20l0 0c13,1 23,10 23,23 0,16 -13,27 -33,27l-44 0 0 0zm23 -56l13 0c9,0 14,-4 14,-11 0,-6 -5,-10 -13,-10l-14 0 0 21zm15 39c9,0 15,-5 15,-13 0,-7 -6,-11 -15,-11l-15 0 0 24 15 0z"/>
    <path class="fil0" d="M1350 273c0,29 -18,48 -46,48 -28,0 -46,-19 -46,-48 0,-30 18,-49 46,-49 28,1 46,19 46,49zm-68 0c0,17 9,29 22,29 13,0 22,-12 22,-29 0,-18 -9,-29 -22,-29 -13,0 -22,11 -22,29z"/>
   </g>
   <g>
    <path class="fil0" d="M232 948l0 358c0,28 23,51 51,51l342 0c4,0 7,-3 7,-7l0 -15c0,-4 -3,-7 -7,-7l-342 0c-12,0 -22,-10 -22,-22l0 -358c0,-12 10,-22 22,-22l343 0c4,0 7,-3 7,-7l0 -15c0,-4 -3,-7 -7,-7l-343 0c-28,0 -51,23 -51,51z"/>
    <path class="fil0" d="M349 1307l277 0c4,0 7,-4 7,-8l0 0c0,-4 -3,-7 -7,-7l-262 0 0 -330 262 0c4,0 7,-3 7,-7l0 0c0,-4 -3,-7 -7,-7l-277 0 0 359z"/>
    <path class="fil0" d="M289 1068l0 118c0,8 7,15 15,15 8,0 15,-7 15,-15l0 -118c0,-8 -7,-15 -15,-15 -8,0 -15,7 -15,15z"/>
    <path class="fil0" d="M517 498l-10 15 60 43c-59,9 -114,36 -157,79 -42,42 -70,98 -78,157l-44 -61 -15 11 65 90 84 -71 -11 -14 -62 51c7,-56 33,-109 74,-150 41,-41 94,-67 150,-74l-51 61 14 12 71 -84 -90 -65z"/>
    <path class="fil0" d="M1075 495l-358 0c-28,0 -51,23 -51,51l0 351 0 29 0 21 0 15 0 330 0 14c0,0 0,1 0,1 0,7 2,15 5,21 7,16 23,27 41,29 2,1 3,1 5,1l358 0c29,0 51,-24 51,-52l0 -760c0,-28 -23,-51 -51,-51zm-238 47l118 0c8,0 15,6 15,14 0,9 -7,15 -15,15l-118 0c-8,0 -15,-6 -15,-15 0,-8 7,-14 15,-14zm59 790c-6,0 -12,-2 -17,-4 -8,-4 -13,-11 -17,-19 -1,-4 -2,-8 -2,-13 0,-19 14,-34 32,-36 2,0 3,0 4,0 5,0 10,1 15,3 12,6 21,18 21,33 0,20 -16,36 -36,36zm179 -89l-52 0 -29 0 -86 0 -15 0 -177 0 0 -281 0 -15 0 -21 0 -29 0 -284 360 0 0 630 -1 0z"/>
   </g>
   <path class="fil1" d="M167 1574l0 28 4 0c7,0 12,-1 15,-2 4,-3 6,-7 6,-12 0,-9 -6,-14 -17,-14l-8 0zm0 40l0 32 11 0c13,0 19,-5 19,-15 0,-11 -6,-17 -19,-17l-11 0zm-15 46l0 -100 22 0c22,0 33,9 33,28 0,8 -4,14 -10,18 5,2 8,5 11,9 3,4 5,9 5,15 0,20 -13,30 -38,30l-23 0zm128 -86l0 28 5 0c6,0 11,-1 14,-2 4,-3 6,-7 6,-12 0,-9 -6,-14 -17,-14l-8 0zm0 40l0 32 11 0c13,0 19,-5 19,-15 0,-11 -6,-17 -19,-17l-11 0zm-15 46l0 -100 22 0c22,0 33,9 33,28 0,8 -3,14 -10,18 5,2 9,5 11,9 3,4 5,9 5,15 0,20 -13,30 -37,30l-24 0zm126 -14l0 14 -52 0 0 -100 52 0 0 14 -38 0 0 29 38 0 0 14 -38 0 0 29 38 0zm31 -72l0 32 11 0c6,0 11,-1 14,-3 5,-2 7,-6 7,-13 0,-11 -7,-16 -21,-16l-11 0zm0 46l0 40 -14 0 0 -100 27 0c10,0 18,2 24,7 6,6 10,13 10,23 0,10 -4,17 -11,23 -6,5 -14,7 -24,7l-12 0zm86 -46l0 86 -15 0 0 -86 -20 0 0 -14 55 0 0 14 -20 0zm92 12l-48 74 -14 0 0 -100 15 0 0 74 48 -74 14 0 0 100 -15 0 0 -74zm47 -26l0 49 38 -49 18 0 -40 50 39 50 -19 0 -36 -49 0 49 -15 0 0 -100 15 0zm127 100l-11 -28 -39 0 -11 28 -16 0 39 -100 15 0 39 100 -16 0zm-31 -80l-14 37 28 0 -14 -37zm89 0l-27 80 -16 0 36 -100 14 0 37 100 -16 0 -28 -80zm50 80l0 -100 15 0 0 40 9 0c11,0 19,2 26,6 7,6 10,14 10,24 0,10 -3,18 -11,24 -6,4 -14,6 -25,6l-24 0zm15 -46l0 32 9 0c7,0 12,-1 15,-3 4,-2 6,-7 6,-13 0,-6 -2,-11 -6,-13 -3,-2 -8,-3 -15,-3l-9 0zm73 3l0 43 -16 0 0 -100 16 0 0 42 40 0 0 -42 15 0 0 100 -15 0 0 -43 -40 0zm155 -8c0,-9 -4,-18 -11,-25 -7,-7 -15,-11 -25,-11 -10,0 -18,4 -25,11 -7,7 -11,16 -11,26 0,10 3,19 10,26 7,8 16,12 26,12 10,0 19,-4 26,-12 7,-7 10,-16 10,-27zm15 1c0,14 -5,27 -14,37 -10,10 -22,16 -37,16 -14,0 -27,-6 -37,-16 -10,-11 -15,-23 -15,-37 0,-14 6,-26 16,-37 10,-10 22,-15 36,-15 14,0 26,5 36,15 10,10 15,23 15,37zm66 36l0 14 -53 0 0 -100 53 0 0 14 -38 0 0 29 38 0 0 14 -38 0 0 29 38 0zm-912 90l0 86 -15 0 0 -101 69 0 0 101 -15 0 0 -86 -39 0zm154 35c0,-10 -3,-18 -10,-26 -7,-7 -16,-11 -25,-11 -10,0 -19,4 -26,11 -7,8 -10,16 -10,26 0,10 3,19 10,26 7,8 15,12 26,12 10,0 19,-4 25,-11 7,-8 10,-17 10,-27zm16 0c0,15 -5,27 -15,37 -10,11 -22,16 -36,16 -15,0 -27,-5 -37,-16 -10,-10 -15,-23 -15,-37 0,-14 5,-26 15,-36 11,-10 23,-15 37,-15 14,0 26,5 36,15 10,10 15,22 15,36zm42 -30l-27 81 -16 0 36 -101 15 0 36 101 -16 0 -28 -81zm130 30c0,-10 -3,-18 -10,-26 -8,-7 -16,-11 -26,-11 -9,0 -18,4 -25,11 -7,8 -11,16 -11,26 0,10 4,19 11,26 7,8 15,12 25,12 11,0 19,-4 26,-11 7,-8 10,-17 10,-27zm16 0c0,15 -5,27 -15,37 -10,11 -22,16 -37,16 -14,0 -26,-5 -36,-16 -10,-10 -15,-23 -15,-37 0,-14 5,-26 15,-36 10,-10 23,-15 37,-15 14,0 26,5 36,15 10,10 15,22 15,36zm50 -50l15 0 0 49 35 -49 18 0 -38 50 37 51 -19 0 -33 -49 0 49 -15 0 0 -49 -33 49 -19 0 37 -51 -38 -50 18 0 35 49 0 -49zm127 87l0 14 -53 0 0 -101 53 0 0 14 -38 0 0 30 38 0 0 13 -38 0 0 30 38 0zm31 -30l0 44 -15 0 0 -101 15 0 0 43 40 0 0 -43 15 0 0 101 -15 0 0 -44 -40 0zm134 -30l-48 74 -13 0 0 -101 14 0 0 75 49 -75 13 0 0 101 -15 0 0 -74zm85 60l0 14 -52 0 0 -101 52 0 0 14 -37 0 0 30 37 0 0 13 -37 0 0 30 37 0z"/>
  </g>
 </g>
</svg>
