<?xml version="1.0" encoding="UTF-8"?>
<!DOCTYPE svg PUBLIC "-//W3C//DTD SVG 1.1//EN" "http://www.w3.org/Graphics/SVG/1.1/DTD/svg11.dtd">
<!-- Creator: CorelDRAW X8 -->
<svg xmlns="http://www.w3.org/2000/svg" xml:space="preserve" width="154px" height="154px" version="1.1" style="shape-rendering:geometricPrecision; text-rendering:geometricPrecision; image-rendering:optimizeQuality; fill-rule:evenodd; clip-rule:evenodd"
viewBox="0 0 154 154"
 xmlns:xlink="http://www.w3.org/1999/xlink">
 <defs>
  <style type="text/css">
   <![CDATA[
    .fil0 {fill:#FEFEFE}
    .fil1 {fill:#4E749D}
   ]]>
  </style>
 </defs>
 <g id="Слой_x0020_1">
  <metadata id="CorelCorpID_0Corel-Layer"/>
  <rect class="fil0" width="154" height="154"/>
  <path class="fil1" d="M154 0l-77 0 -77 0 0 77 0 77 77 0 77 0 0 -77 0 -77zm-105 41l0 0 41 0c7,0 13,1 16,5 4,3 6,7 6,13 0,4 -2,7 -4,10 -2,2 -4,4 -8,5 5,1 9,3 11,6 3,3 4,7 4,12 0,4 -1,7 -3,10 -1,3 -4,5 -7,7 -1,1 -4,2 -8,2 -5,1 -8,1 -10,1l-38 0 0 -71zm22 28l0 0 0 -14 10 0c3,0 6,1 7,2 1,1 2,3 2,5 0,2 -1,4 -2,5 -1,1 -4,2 -7,2l-10 0zm0 28l0 0 0 -15 11 0c4,0 7,1 9,2 1,2 2,3 2,5 0,3 -1,4 -2,6 -2,1 -5,2 -8,2l-12 0z"/>
 </g>
</svg>
