<?xml version="1.0" encoding="UTF-8"?>
<!DOCTYPE svg PUBLIC "-//W3C//DTD SVG 1.1//EN" "http://www.w3.org/Graphics/SVG/1.1/DTD/svg11.dtd">
<!-- Creator: CorelDRAW X8 -->
<svg xmlns="http://www.w3.org/2000/svg" xml:space="preserve" width="154px" height="154px" version="1.1" style="shape-rendering:geometricPrecision; text-rendering:geometricPrecision; image-rendering:optimizeQuality; fill-rule:evenodd; clip-rule:evenodd"
viewBox="0 0 154 154"
 xmlns:xlink="http://www.w3.org/1999/xlink">
 <defs>
  <style type="text/css">
   <![CDATA[
    .fil0 {fill:#FEFEFE}
    .fil1 {fill:#C13A34}
   ]]>
  </style>
 </defs>
 <g id="Слой_x0020_1">
  <metadata id="CorelCorpID_0Corel-Layer"/>
  <rect class="fil0" width="154" height="154"/>
  <path class="fil1" d="M154 0l-77 0 -77 0 0 77 0 77 77 0 77 0 0 -77 0 -77zm-61 69l0 0 0 -2 0 -1 0 -2 0 -1 0 -1 0 -2 0 0 0 -2 0 -2 0 -1 0 -2 0 -1 0 -2 0 -1 0 -3 0 0 0 -2 0 -1 0 -3c0,0 0,0 1,0 0,0 0,0 0,0 1,0 1,0 1,0l6 0 0 3 0 3 0 4 0 3 0 3 0 4 0 2 0 1c0,1 0,2 0,3 0,0 0,0 1,1 0,0 0,0 0,0l0 0c1,0 2,0 3,0l0 0c0,0 0,0 0,-1l1 0c0,0 1,-1 1,-1 0,0 0,0 0,0 0,0 0,0 0,0 1,0 1,0 1,-1 0,0 0,0 0,0 0,0 0,0 0,-1l0 -3 0 -5 0 -2 0 -2 0 -3 0 -2 0 -3 0 -3 7 0 0 1 0 1 0 1 0 0 0 3 0 1 0 1 0 2 0 1 0 1 0 1 0 1 0 1 0 1 0 1 0 2 0 1 0 1 0 2 0 0 0 2 0 2 0 0 0 4 0 2 -7 0c-1,-1 0,-3 0,-4 -1,0 -1,1 -2,1 0,0 0,0 0,1 -2,1 -4,2 -5,2 -2,0 -4,0 -6,-1 0,0 0,-1 -1,-1 0,0 0,0 0,-1l0 0c0,0 0,-1 -1,-1zm-48 9l0 0 64 0c7,0 12,5 12,12l0 22c0,7 -5,12 -12,12l-64 0c-7,0 -12,-5 -12,-12l0 -22c0,-7 5,-12 12,-12zm39 34l0 0 0 -1 0 -2 0 -2 0 -1 0 -2 0 -2 0 -3 0 -1c1,-1 2,-2 3,-1 1,0 2,1 2,2l0 4 0 1 0 2 0 1 0 2 0 2 0 1c-1,1 -1,1 -2,1 -1,0 -3,0 -3,-1zm-5 5l0 0 0 -32 5 0 0 1 0 4 0 5 0 0c1,-1 3,-2 5,-2 1,0 3,0 3,1 1,1 1,1 2,2 0,0 0,1 0,1 0,0 0,1 0,2 0,1 0,2 0,3l0 3 0 1 0 0 0 3 0 2 0 1c0,1 0,2 0,2 0,1 0,1 -1,1 0,0 0,0 0,1l-1 0c-1,1 -2,1 -4,1 -1,0 -3,-1 -4,-2l0 2 -5 0zm25 -19l0 0c0,0 1,-1 1,-1 0,0 1,0 2,0 1,0 1,0 1,1 1,0 1,3 1,4l-5 0c0,-1 0,-3 0,-4zm-1 -5l0 0c1,0 1,0 2,0 1,0 2,0 2,0 4,0 6,1 7,4l0 2 0 7 -10 -1c0,1 0,5 0,6 0,0 0,0 0,1 0,1 1,1 2,1 1,0 2,0 2,-1 1,0 1,-1 1,-1l0 -2 0 -1 0 0 5 0 0 3 0 1c0,0 0,1 0,2 -1,0 -1,0 -1,0 0,1 0,1 0,1 -1,0 -2,2 -6,2 -4,0 -5,-1 -6,-1 0,-1 -1,-1 -1,-1 0,0 0,0 0,-1 -1,0 -1,0 -1,-1 0,0 0,-1 0,-1l-1 -1 0 -1 0 -11 1 -1c0,-2 1,-3 2,-4 1,0 1,0 2,-1zm-45 20l0 0 0 -20 5 0 0 2 0 3 0 1 0 5 0 2 0 1 0 1 0 2 0 1c1,1 1,1 1,2 1,0 1,0 2,-1 1,0 2,-1 2,-1l0 -1 0 -2 0 -1 0 -1 0 -2 0 -5 0 -2 0 -2 0 -2 5 0 0 24 -5 0 0 -3c-1,1 -2,2 -4,3 -4,1 -5,-1 -5,-1 -1,-1 -1,-1 -1,-2l0 -1zm-19 -23l0 0 0 -5 19 0 0 5 -6 0 0 1 0 1 0 4 0 4 0 4 0 2 0 1 0 2 0 2 0 1 0 2 0 2 0 1 -6 0 0 -27 -7 0zm48 -37l0 0 0 2 0 5 0 4 0 1 0 1c0,1 0,1 0,1 0,1 0,1 0,2 -1,0 -1,0 -1,0 0,0 0,0 0,1 0,0 0,0 0,0 -1,0 -1,1 -1,1 0,0 0,0 0,0 -1,0 -1,0 -1,0l0 1c-3,1 -5,2 -8,2 -1,0 -2,0 -3,-1 -1,0 -1,0 -2,0 0,0 -1,-1 -1,-1 -1,0 -1,0 -1,0l-1 -1c-1,0 -1,-1 -1,-1 0,0 -1,-1 -1,-1l0 -1 -1 -1 0 -1 0 -1 0 -1 0 -4 0 -5 0 -2 0 -4 0 -1 0 -1 0 -1c0,-1 1,-1 1,-2 0,0 1,-1 1,-1 0,0 0,-1 1,-1l0 0c3,-2 9,-3 12,-2 3,1 3,1 4,2 0,0 0,0 0,0 0,0 0,0 1,0l0 1c0,0 0,0 0,0l1 1 0 0c1,1 1,1 1,2 0,0 0,0 0,0l0 2 0 1 0 2 0 2zm-8 -2l0 0 1 2 0 2 0 5 0 4c0,0 0,2 -1,2 0,0 0,0 0,0 0,1 0,0 0,0 0,1 0,0 0,1 0,0 0,0 0,0 0,0 -1,0 -1,1 -1,0 -1,0 -2,0 -2,0 -2,-1 -2,-1 -1,0 -1,0 -1,-1l0 0c0,-1 0,-2 0,-2l0 -4 0 -5 0 -2 0 -4 0 -1c0,-1 0,-2 1,-2 1,-1 1,-1 2,-1 2,0 2,1 3,1 0,0 0,0 0,0 0,0 0,0 0,0 0,1 0,1 0,2l0 1 0 2zm-20 -9l0 0c0,0 0,1 -1,2l-1 4c0,1 -1,2 -1,2 0,0 0,0 0,1l0 0 -1 2 0 0c0,0 -1,1 -1,2l0 2 0 1 0 1 0 1 0 2 0 2 0 0 0 2 0 0 0 2 0 1 0 3 0 0 -8 0 0 -1 0 -3 0 -2 0 -1 0 -3 0 -2 0 -4c0,-1 -1,-2 -1,-3l0 0c0,0 0,-1 0,-1 -1,0 -1,-1 -1,-1 0,-1 0,-1 -1,-1 0,-1 0,-1 0,-2 0,0 0,0 0,-1l-1 -1c0,-1 0,-1 -1,-2l-1 -2c0,-1 0,-2 0,-2 -1,-1 -1,-1 -1,-1 0,-1 0,-1 0,-2l-1 0c0,-1 0,-1 0,-2 0,0 -1,-2 -1,-2 0,0 -1,-1 -1,-2 0,0 0,-1 0,-1l8 0c0,0 0,0 0,0l1 3 1 2 1 2 0 3 1 2 1 2 1 3 0 0 1 -3 1 -2 0 -2 1 -3 1 -2 0 -2c1,-1 1,-3 2,-3l8 0c0,0 -1,3 -1,3 0,0 -1,1 -1,2l0 0c0,1 -1,2 -1,2 0,1 -1,2 -1,2 0,1 0,2 -1,3z"/>
 </g>
</svg>
